<svg width="240" height="72" viewBox="0 0 240 72" fill="none" xmlns="http://www.w3.org/2000/svg">
  <defs>
    <linearGradient id="bb-gradient" x1="0" y1="0" x2="240" y2="72" gradientUnits="userSpaceOnUse">
      <stop offset="0%" stop-color="#00E0FF"/>
      <stop offset="35%" stop-color="#4B7BFF"/>
      <stop offset="70%" stop-color="#B450FF"/>
      <stop offset="100%" stop-color="#FF4FD8"/>
    </linearGradient>
    <linearGradient id="bb-text" x1="0" y1="0" x2="0" y2="72" gradientUnits="userSpaceOnUse">
      <stop offset="0%" stop-color="#F2FBFF"/>
      <stop offset="100%" stop-color="#A8C3FF"/>
    </linearGradient>
  </defs>
  <rect x="12" y="18" width="12" height="36" rx="4" fill="url(#bb-gradient)" opacity="0.6"/>
  <rect x="32" y="10" width="12" height="52" rx="4" fill="url(#bb-gradient)" opacity="0.8"/>
  <rect x="52" y="24" width="12" height="38" rx="4" fill="url(#bb-gradient)"/>
  <rect x="72" y="12" width="12" height="48" rx="4" fill="url(#bb-gradient)" opacity="0.8"/>
  <rect x="92" y="20" width="12" height="40" rx="4" fill="url(#bb-gradient)" opacity="0.6"/>
  <path d="M130 8 C124 8 119 12.5 119 18.5 V53.5 C119 59.5 124 64 130 64 H152 C165 64 175 54 175 41 C175 28 165 18 152 18 H139 V8 H130 Z M139 30 H150 C156.5 30 162 34.5 162 41 C162 47.5 156.5 52 150 52 H139 V30 Z" fill="url(#bb-text)"/>
  <path d="M189 8 C183 8 178 12.5 178 18.5 V53.5 C178 59.5 183 64 189 64 H211 C224 64 234 54 234 41 C234 28 224 18 211 18 H198 V8 H189 Z M198 30 H209 C215.5 30 221 34.5 221 41 C221 47.5 215.5 52 209 52 H198 V30 Z" fill="url(#bb-text)"/>
  <path d="M118 8 V64" stroke="url(#bb-gradient)" stroke-width="4" stroke-linecap="round" opacity="0.4"/>
</svg>
